<svg version="1.1" viewBox="0.0 0.0 446.6404199475066 416.98950131233596" fill="none" stroke="none" stroke-linecap="square" stroke-miterlimit="10" xmlns:xlink="http://www.w3.org/1999/xlink" xmlns="http://www.w3.org/2000/svg"><clipPath id="p.0"><path d="m0 0l446.6404 0l0 416.9895l-446.6404 0l0 -416.9895z" clip-rule="nonzero"/></clipPath><g clip-path="url(#p.0)"><path fill="#000000" fill-opacity="0.0" d="m0 0l446.6404 0l0 416.9895l-446.6404 0z" fill-rule="evenodd"/><path fill="#1c4587" d="m0 208.48819l0 0c0 -115.14485 98.53261 -208.48819 220.07874 -208.48819q110.03937 0 220.07874 0q0 104.244095 0 208.48819l0 0c0 115.14484 -98.53259 208.48819 -220.07874 208.48819l0 0c-121.54613 0 -220.07874 -93.34335 -220.07874 -208.48819z" fill-rule="evenodd"/><path fill="#ff9900" d="m52.002064 114.633125l47.95776 123.7783l16.802101 0l48.464363 -123.7783l-16.717682 0l-33.435333 89.9208c-2.5329819 6.754608 -4.7563705 13.509232 -6.6701813 20.26384c-1.7449417 -6.304306 -3.9120483 -13.058914 -6.5013123 -20.26384l-32.168854 -89.9208z" fill-rule="evenodd"/><path fill="#ff9900" d="m179.24211 114.633125l0 123.7783l16.379929 0l0 -42.8918l20.26384 -19.757248l44.073868 62.649048l21.614746 0l-54.205765 -73.62529l51.9261 -50.153008l-22.20581 0l-61.46698 61.38256l0 -61.38256z" fill-rule="evenodd"/><path fill="#ff9900" d="m337.97552 112.52231c-8.330688 0 -15.901489 1.4072113 -22.712372 4.221634c-6.810913 2.8144226 -11.989441 6.942238 -15.535614 12.383453c-3.546173 5.422455 -5.319275 11.25769 -5.319275 17.505707c0 5.685135 1.4447327 10.826157 4.3342285 15.423035c2.9082336 4.5781403 7.3174744 8.415131 13.227783 11.511002c4.5593567 2.420395 12.52417 5.00029 23.89444 7.7396545c11.37027 2.7206116 18.715912 4.7282257 22.036926 6.0228577c5.178528 1.970108 8.893585 4.4092712 11.145111 7.317505c2.2515259 2.8894653 3.3773193 6.276169 3.3773193 10.160065c0 3.8276215 -1.1726685 7.364395 -3.518036 10.610367c-2.3265991 3.2272034 -5.882141 5.769577 -10.6666565 7.6270905c-4.7845154 1.8575134 -10.300781 2.7862854 -16.548798 2.7862854c-7.036072 0 -13.36853 -1.2195892 -18.997375 -3.6587524c-5.628845 -2.4579315 -9.78479 -5.666382 -12.4678955 -9.62532c-2.6643066 -3.9777222 -4.362335 -9.062454 -5.0940857 -15.254181l-15.451172 1.3509216c0.22512817 8.274414 2.4860535 15.695099 6.7827454 22.262085c4.31546 6.548218 10.253876 11.454697 17.815308 14.719437c7.5801697 3.2647247 16.970947 4.8970947 28.172363 4.8970947c8.83728 0 16.783325 -1.613617 23.838165 -4.840805c7.073578 -3.2459717 12.496033 -7.777191 16.267334 -13.593674c3.7713318 -5.8352356 5.657013 -12.045715 5.657013 -18.63147c0 -6.642044 -1.7167969 -12.505417 -5.1503906 -17.590134c-3.4335938 -5.103485 -8.752869 -9.31575 -15.957794 -12.636765c-4.953369 -2.2515411 -14.090851 -4.8783264 -27.412476 -7.8803864c-13.302826 -3.020813 -21.530334 -5.966568 -24.682465 -8.83728c-3.2084656 -2.8707123 -4.812683 -6.5294647 -4.812683 -10.976242c0 -5.1222534 2.2609253 -9.493988 6.782776 -13.115219c4.5405884 -3.6399841 11.764282 -5.459976 21.671051 -5.459976c9.512726 0 16.698914 1.9982452 21.558472 5.9947205c4.8783264 3.9964752 7.7396545 9.906769 8.583984 17.730865l15.704468 -1.1820679c-0.2814331 -7.2612 -2.3078308 -13.762527 -6.079132 -19.503937c-3.7713318 -5.7414246 -9.165649 -10.085022 -16.182953 -13.030785c-6.9985046 -2.9645233 -15.085297 -4.446785 -24.260315 -4.446785z" fill-rule="evenodd"/><path fill="#ffffff" d="m100.87655 282.1386c2.4567032 0 4.456131 1.0732422 5.998291 3.2197266c1.0041962 1.3828125 1.613884 3.4570618 1.829071 6.2227173l-15.9506 0c0.16139221 -2.868866 0.9982147 -5.1598206 2.5104904 -6.872864c1.5182495 -1.7130432 3.3891678 -2.56958 5.612747 -2.56958zm-48.873928 -16.346252l15.278149 45.38562l5.35273 0l15.439537 -45.38562l-5.325836 0l-10.651665 32.97113c-0.8069458 2.476715 -1.5152664 4.95343 -2.1249542 7.4301147c-0.55589294 -2.3115845 -1.2462845 -4.7882996 -2.0711594 -7.4301147l-10.248192 -32.97113zm48.820133 11.764343c-3.9450607 0 -7.154907 1.5273132 -9.629532 4.581909c-2.4746323 3.054596 -3.7119446 7.3475647 -3.7119446 12.878876c0 5.3455505 1.2223663 9.500916 3.6671143 12.466095c2.450714 2.9582825 5.765167 4.4374084 9.943344 4.4374084c3.3174362 0 6.0431137 -0.92874146 8.17704 -2.7862854c2.1339188 -1.857544 3.5953827 -4.468384 4.384392 -7.8325806l-5.0030518 -0.71206665c-0.73521423 2.3528748 -1.7304459 4.0659485 -2.985695 5.1391907c-1.255249 1.0732117 -2.7705078 1.6098328 -4.545784 1.6098328c-2.3849716 0 -4.375435 -0.9597168 -5.97139 -2.8791504c-1.5959549 -1.9194641 -2.4835968 -4.6851196 -2.662918 -8.296967l21.30333 0c0.017936707 -0.6604614 0.026901245 -1.1557922 0.026901245 -1.486023c0 -5.428131 -1.2104187 -9.638519 -3.6312485 -12.631195c-2.4208374 -2.9927063 -5.5410233 -4.489044 -9.360558 -4.489044z" fill-rule="evenodd"/><path fill="#ffffff" d="m130.22243 277.5567c-1.129715 0 -2.1667938 0.371521 -3.1112213 1.1145325c-0.93844604 0.7430115 -1.963562 2.2806091 -3.075348 4.612854l0 -4.984375l-4.357506 0l0 32.878265l4.841667 0l0 -17.213104c0 -2.3528748 0.26898193 -4.519989 0.8069458 -6.501343c0.35864258 -1.3002625 0.95936584 -2.315033 1.8021774 -3.044281c0.84280396 -0.736145 1.7932053 -1.1042175 2.851204 -1.1042175c1.1835175 0 2.367035 0.40246582 3.5505524 1.2073975l1.6676788 -5.170105c-1.6856079 -1.1970825 -3.3443298 -1.7956238 -4.9761505 -1.7956238z" fill-rule="evenodd"/><path fill="#ffffff" d="m138.10359 265.79236l0 45.38562l4.8416595 0l0 -13.033661l3.4160614 -3.7769775l9.441254 16.810638l5.97139 0l-12.023468 -20.680481l10.920639 -12.197784l-6.267273 0l-11.458603 13.374207l0 -25.881561z" fill-rule="evenodd"/><path fill="#ffffff" d="m183.85733 294.67694l0 2.043274c0 2.4560547 -0.26000977 4.3135986 -0.78004456 5.5726013c-0.681427 1.6304932 -1.7483826 2.9169922 -3.200882 3.8595276c-1.4524994 0.9356384 -3.1112213 1.4034729 -4.9761505 1.4034729c-1.8828735 0 -3.3144531 -0.49536133 -4.294739 -1.486023c-0.97431946 -0.99069214 -1.4614716 -2.2290344 -1.4614716 -3.7150574c0 -0.97006226 0.22415161 -1.8506775 0.67245483 -2.6418457c0.44830322 -0.79803467 1.0848999 -1.4034424 1.9097748 -1.8162537c0.8248749 -0.41278076 2.232544 -0.78427124 4.223007 -1.114502c3.5146942 -0.5779114 6.150711 -1.2796326 7.9080505 -2.105194zm-6.159668 -17.12024c-2.4567108 0 -4.617523 0.3887024 -6.4824524 1.1661072c-1.8649445 0.77053833 -3.2905426 1.8747253 -4.2768097 3.3125916c-0.9862671 1.4309998 -1.6945801 3.3125916 -2.1249542 5.6448364l4.73407 0.7430115c0.5200348 -2.3322449 1.3209991 -3.955841 2.4029083 -4.8708496c1.0878754 -0.921875 2.7705078 -1.382843 5.047882 -1.382843c2.4387665 0 4.2768097 0.6295166 5.5141144 1.8884888c0.9145355 0.928772 1.3718109 2.5283203 1.3718109 4.7986145c0 0.2064209 -0.008972168 0.69143677 -0.026901245 1.4550781c-1.8470001 0.7430115 -4.725113 1.382843 -8.634308 1.9194336c-1.9187317 0.26831055 -3.353302 0.54696655 -4.3036957 0.835907c-1.2911072 0.41278076 -2.4537048 1.021637 -3.487793 1.8265686c-1.0281067 0.80493164 -1.8619537 1.8747253 -2.5015259 3.2094116c-0.63360596 1.3277588 -0.95040894 2.7966003 -0.95040894 4.4064636c0 2.744995 0.84280396 5.0015564 2.5284271 6.7696533c1.6856232 1.7612305 4.0974884 2.6418152 7.2355957 2.6418152c1.9008026 0 3.6790771 -0.36117554 5.3348083 -1.0835571c1.6617126 -0.7223511 3.3891602 -1.9607239 5.182373 -3.7150574c0.14346313 1.5479431 0.4662323 2.8998108 0.968338 4.055603l5.0568542 0c-0.60969543 -1.2589722 -1.0191498 -2.5730286 -1.228363 -3.9420776c-0.20321655 -1.375946 -0.3048401 -4.6541443 -0.3048401 -9.834595l0 -7.4301147c0 -2.476715 -0.08068848 -4.1897583 -0.24208069 -5.13916c-0.286911 -1.5273132 -0.7890167 -2.789734 -1.5063019 -3.7872925c-0.71728516 -1.0044556 -1.838028 -1.8369141 -3.362259 -2.497345c-1.524231 -0.6604614 -3.505722 -0.99069214 -5.9444885 -0.99069214z" fill-rule="evenodd"/><path fill="#ffffff" d="m196.14978 278.2997l0 20.37091c0 2.3735046 0.09863281 4.1072083 0.29588318 5.2010803c0.286911 1.6304932 0.7830353 3.0098877 1.4883575 4.138153c0.71131897 1.1213989 1.7962036 2.0536194 3.2546844 2.7966309c1.464447 0.7430115 3.0394897 1.114502 4.725113 1.114502c3.8195343 0 6.841095 -1.8575134 9.064667 -5.572571l0 4.8295593l4.330597 0l0 -32.878265l-4.8416595 0l0 17.61557c0 2.8069458 -0.2659912 4.9499817 -0.79797363 6.4291077c-0.52601624 1.4722595 -1.4256134 2.6383972 -2.6987915 3.498352c-1.2731781 0.8530884 -2.6360168 1.2796326 -4.088516 1.2796326c-1.4524994 0 -2.671875 -0.41622925 -3.658142 -1.2486572c-0.9862671 -0.83932495 -1.6318207 -1.9916992 -1.936676 -3.4570923c-0.19725037 -1.011322 -0.29586792 -2.972046 -0.29586792 -5.8821716l0 -18.234741z" fill-rule="evenodd"/><path fill="#ffffff" d="m235.95905 265.01837c-2.1159973 0 -3.7627563 0.45062256 -4.9402924 1.3518677c-1.1715698 0.89437866 -1.9904633 2.0639343 -2.4566956 3.508667c-0.3407135 1.0732422 -0.5110779 2.7140503 -0.5110779 4.922455l0 3.498352l-4.2767944 0l0 4.3342285l4.2767944 0l0 28.544037l4.8147736 0l0 -28.544037l5.567917 0l0 -4.3342285l-5.567917 0l0 -3.033966c0 -1.9813538 0.3048401 -3.3332214 0.9145355 -4.055603c0.60969543 -0.7223816 1.6497498 -1.0835571 3.1201935 -1.0835571c0.8965912 0 1.8470001 0.10317993 2.8511963 0.3095703l0.7262573 -4.8605347c-1.649765 -0.37149048 -3.1560516 -0.557251 -4.5188904 -0.557251zm15.627823 12.53833c-1.4883728 0 -2.884079 0.2236023 -4.187149 0.67077637c-1.2970886 0.44030762 -2.3222046 0.9803467 -3.075348 1.6201782c-1.0042114 0.8255615 -1.7991943 1.8644104 -2.3849792 3.116516c-0.57980347 1.2452393 -0.8697052 2.6005554 -0.8697052 4.065918c0 1.6098633 0.35266113 3.0821228 1.0579987 4.416809c0.7113037 1.3277893 1.751358 2.3700562 3.1201782 3.126831c1.3748016 0.74990845 3.8374786 1.6408386 7.388031 2.6727905c2.6360168 0.76364136 4.2857666 1.3931274 4.9492493 1.8884888c0.95040894 0.7223816 1.4255981 1.7130432 1.4255981 2.972046c0 1.4034729 -0.53796387 2.6280518 -1.6138916 3.673767c-1.0759277 1.0388489 -2.7256622 1.558258 -4.9492493 1.558258c-2.2056427 0 -3.9241333 -0.5881958 -5.155472 -1.7646484c-1.225357 -1.1764221 -1.9725342 -2.8688354 -2.241516 -5.07724l-4.7878723 0.8668518c0.53796387 3.488037 1.7782745 6.1195374 3.7209167 7.8945007c1.9486237 1.7749634 4.7789 2.662445 8.490845 2.662445c2.241516 0 4.249893 -0.44717407 6.0251923 -1.3415527c1.7752686 -0.9012451 3.132141 -2.1705322 4.070587 -3.8079224c0.9444275 -1.6442566 1.416626 -3.3951416 1.416626 -5.2526855c0 -1.8988037 -0.38552856 -3.488037 -1.1566162 -4.7676697c-0.77108765 -1.279602 -1.8350525 -2.2531128 -3.191925 -2.9204407c-1.3508911 -0.67422485 -3.7388306 -1.5376282 -7.163864 -2.59021c-2.367035 -0.7430115 -3.792633 -1.2177124 -4.2768097 -1.4241028c-0.84280396 -0.39215088 -1.4614563 -0.8874817 -1.8559723 -1.486023c-0.39450073 -0.5779114 -0.5917511 -1.2280579 -0.5917511 -1.9504089c0 -1.1351624 0.47520447 -2.1258545 1.4255981 -2.972046c0.9503937 -0.8462219 2.5373993 -1.2693176 4.760971 -1.2693176c1.8828735 0 3.3383636 0.47470093 4.3664703 1.4241028c1.0340881 0.94940186 1.6587219 2.2703247 1.8739014 3.962738l4.73407 -0.7430115c-0.3048401 -2.1258545 -0.8607483 -3.8217163 -1.6676941 -5.0875854c-0.8069458 -1.2727356 -2.059204 -2.2806091 -3.756775 -3.0236206c-1.6915894 -0.7430115 -3.658142 -1.1145325 -5.899643 -1.1145325z" fill-rule="evenodd"/><path fill="#ffffff" d="m279.13055 277.5567c-1.4883423 0 -2.8840637 0.2236023 -4.187134 0.67077637c-1.2970886 0.44030762 -2.3222046 0.9803467 -3.075348 1.6201782c-1.0042114 0.8255615 -1.7991943 1.8644104 -2.3849792 3.116516c-0.57980347 1.2452393 -0.86968994 2.6005554 -0.86968994 4.065918c0 1.6098633 0.35266113 3.0821228 1.0579834 4.416809c0.7113037 1.3277893 1.7513733 2.3700562 3.1201782 3.126831c1.3747864 0.74990845 3.8374634 1.6408386 7.388031 2.6727905c2.6360168 0.76364136 4.2857666 1.3931274 4.9492493 1.8884888c0.95040894 0.7223816 1.4255981 1.7130432 1.4255981 2.972046c0 1.4034729 -0.53796387 2.6280518 -1.6138916 3.673767c-1.0759277 1.0388489 -2.7256775 1.558258 -4.9492493 1.558258c-2.205658 0 -3.9241333 -0.5881958 -5.155487 -1.7646484c-1.2253418 -1.1764221 -1.9725037 -2.8688354 -2.2414856 -5.07724l-4.7878723 0.8668518c0.53796387 3.488037 1.7782593 6.1195374 3.7208862 7.8945007c1.9486389 1.7749634 4.7789307 2.662445 8.490875 2.662445c2.2414856 0 4.249878 -0.44717407 6.025177 -1.3415527c1.7752686 -0.9012451 3.132141 -2.1705322 4.070587 -3.8079224c0.9444275 -1.6442566 1.416626 -3.3951416 1.416626 -5.2526855c0 -1.8988037 -0.38552856 -3.488037 -1.1566162 -4.7676697c-0.77108765 -1.279602 -1.8350525 -2.2531128 -3.191925 -2.9204407c-1.3508606 -0.67422485 -3.7388306 -1.5376282 -7.163849 -2.59021c-2.3670654 -0.7430115 -3.7926636 -1.2177124 -4.276825 -1.4241028c-0.84280396 -0.39215088 -1.4614563 -0.8874817 -1.855957 -1.486023c-0.39453125 -0.5779114 -0.59176636 -1.2280579 -0.59176636 -1.9504089c0 -1.1351624 0.4751892 -2.1258545 1.4255981 -2.972046c0.95040894 -0.8462219 2.537384 -1.2693176 4.7609863 -1.2693176c1.882843 0 3.3383484 0.47470093 4.366455 1.4241028c1.0340881 0.94940186 1.6587219 2.2703247 1.8739014 3.962738l4.73407 -0.7430115c-0.3048401 -2.1258545 -0.8607483 -3.8217163 -1.6676941 -5.0875854c-0.8069458 -1.2727356 -2.0591736 -2.2806091 -3.756775 -3.0236206c-1.6915894 -0.7430115 -3.658142 -1.1145325 -5.899658 -1.1145325z" fill-rule="evenodd"/><path fill="#ffffff" d="m302.98923 266.814l-4.814789 3.3435364l0 8.142181l-3.550537 0l0 4.3342285l3.550537 0l0 18.915863c0 3.3435364 0.19726562 5.5381775 0.59176636 6.583893c0.39450073 1.0388489 1.0759277 1.8781738 2.044281 2.5179749c0.96832275 0.63983154 2.3311462 0.9597473 4.088501 0.9597473c1.0759277 0 2.2953186 -0.16513062 3.658142 -0.49536133l-0.6993408 -4.922455c-0.8786621 0.14450073 -1.5870056 0.21673584 -2.1249695 0.21673584c-0.71728516 0 -1.2701721 -0.13415527 -1.6586914 -0.40246582c-0.38256836 -0.26831055 -0.66052246 -0.6295166 -0.8338623 -1.0835571c-0.1673584 -0.45407104 -0.2510376 -1.475708 -0.2510376 -3.0649414l0 -19.225433l4.868561 0l0 -4.3342285l-4.868561 0l0 -11.485718z" fill-rule="evenodd"/><path fill="#ffffff" d="m324.37326 282.1386c2.4566956 0 4.4561157 1.0732422 5.9982605 3.2197266c1.0042114 1.3828125 1.6138916 3.4570618 1.8291016 6.2227173l-15.950623 0c0.16140747 -2.868866 0.99823 -5.1598206 2.510498 -6.872864c1.5182495 -1.7130432 3.3891602 -2.56958 5.6127625 -2.56958zm-0.05380249 -4.581909c-3.9450684 0 -7.154907 1.5273132 -9.629547 4.581909c-2.47464 3.054596 -3.7119446 7.3475647 -3.7119446 12.878876c0 5.3455505 1.2223816 9.500916 3.6671143 12.466095c2.450714 2.9582825 5.765167 4.4374084 9.943359 4.4374084c3.3174438 0 6.0431213 -0.92874146 8.177032 -2.7862854c2.1339111 -1.857544 3.5953674 -4.468384 4.3843994 -7.8325806l-5.0030518 -0.71206665c-0.7352295 2.3528748 -1.7304688 4.0659485 -2.9857178 5.1391907c-1.2552185 1.0732117 -2.7705078 1.6098328 -4.5457764 1.6098328c-2.3849792 0 -4.3754272 -0.9597168 -5.9713745 -2.8791504c-1.5959778 -1.9194641 -2.483612 -4.6851196 -2.6629333 -8.296967l21.303345 0c0.017913818 -0.6604614 0.026885986 -1.1557922 0.026885986 -1.486023c0 -5.428131 -1.2104187 -9.638519 -3.631256 -12.631195c-2.420807 -2.9927063 -5.5410156 -4.489044 -9.360535 -4.489044z" fill-rule="evenodd"/><path fill="#ffffff" d="m343.12125 265.79236l0 45.38562l4.841675 0l0 -45.38562z" fill-rule="evenodd"/><path fill="#ffffff" d="m355.35992 265.79236l0 45.38562l4.8416443 0l0 -45.38562z" fill-rule="evenodd"/><path fill="#ffffff" d="m379.48755 282.1386c2.4566956 0 4.4561157 1.0732422 5.998291 3.2197266c1.0041809 1.3828125 1.6138916 3.4570618 1.829071 6.2227173l-15.950592 0c0.16137695 -2.868866 0.99823 -5.1598206 2.510498 -6.872864c1.5182495 -1.7130432 3.3891602 -2.56958 5.612732 -2.56958zm-0.05380249 -4.581909c-3.9450684 0 -7.154907 1.5273132 -9.629517 4.581909c-2.47464 3.054596 -3.7119446 7.3475647 -3.7119446 12.878876c0 5.3455505 1.2223511 9.500916 3.6671143 12.466095c2.450714 2.9582825 5.765167 4.4374084 9.943329 4.4374084c3.3174438 0 6.0431213 -0.92874146 8.177032 -2.7862854c2.1339417 -1.857544 3.595398 -4.468384 4.3843994 -7.8325806l-5.0030518 -0.71206665c-0.735199 2.3528748 -1.7304382 4.0659485 -2.9856873 5.1391907c-1.255249 1.0732117 -2.7705078 1.6098328 -4.5457764 1.6098328c-2.3849792 0 -4.375458 -0.9597168 -5.971405 -2.8791504c-1.5959473 -1.9194641 -2.4835815 -4.6851196 -2.6629028 -8.296967l21.303314 0c0.017944336 -0.6604614 0.026916504 -1.1557922 0.026916504 -1.486023c0 -5.428131 -1.2104187 -9.638519 -3.631256 -12.631195c-2.4208374 -2.9927063 -5.5410156 -4.489044 -9.360565 -4.489044z" fill-rule="evenodd"/></g></svg>